<svg width="36" height="36" viewBox="0 0 36 36" fill="none" xmlns="http://www.w3.org/2000/svg">
<path d="M24.75 24.75C25.5784 24.75 26.25 24.0784 26.25 23.25C26.25 22.4216 25.5784 21.75 24.75 21.75C23.9216 21.75 23.25 22.4216 23.25 23.25C23.25 24.0784 23.9216 24.75 24.75 24.75Z" stroke="#333333" stroke-width="2.66667" stroke-linecap="round" stroke-linejoin="round"/>
<path d="M10.5 10.5C10.5 9.70435 10.8161 8.94129 11.3787 8.37868C11.9413 7.81607 12.7044 7.5 13.5 7.5C14.2956 7.5 15.0587 7.81607 15.6213 8.37868C16.1839 8.94129 16.5 9.70435 16.5 10.5V24C16.5 25.1935 16.9741 26.3381 17.818 27.182C18.6619 28.0259 19.8065 28.5 21 28.5C22.1935 28.5 23.3381 28.0259 24.182 27.182C25.0259 26.3381 25.5 25.1935 25.5 24V23.25M12 16.5H21" stroke="#333333" stroke-width="2.66667" stroke-linecap="round" stroke-linejoin="round"/>
</svg>
